<svg xmlns="http://www.w3.org/2000/svg" width="11" height="14" viewBox="0 0 11 14">
  <metadata><?xpacket begin="﻿" id="W5M0MpCehiHzreSzNTczkc9d"?>
<x:xmpmeta xmlns:x="adobe:ns:meta/" x:xmptk="Adobe XMP Core 5.6-c140 79.160451, 2017/05/06-01:08:21        ">
   <rdf:RDF xmlns:rdf="http://www.w3.org/1999/02/22-rdf-syntax-ns#">
      <rdf:Description rdf:about=""/>
   </rdf:RDF>
</x:xmpmeta>
                                                                                                    
                                                                                                    
                                                                                                    
                                                                                                    
                                                                                                    
                                                                                                    
                                                                                                    
                                                                                                    
                                                                                                    
                                                                                                    
                                                                                                    
                                                                                                    
                                                                                                    
                                                                                                    
                                                                                                    
                                                                                                    
                                                                                                    
                                                                                                    
                                                                                                    
                                                                                                    
                           
<?xpacket end="w"?></metadata>
<defs>
    <style>
      .cls-1 {
        fill-rule: evenodd;
      }
    </style>
  </defs>
  <path id="Forma_1" data-name="Forma 1" class="cls-1" d="M274.5,26.847a3.2,3.2,0,0,0,2.911-3.423c0-1.891-.428-3.424-2.911-3.424s-2.912,1.533-2.912,3.424A3.2,3.2,0,0,0,274.5,26.847ZM269,32.074c0-.115,0-0.032,0,0h0Zm11,0.09c0-.032,0-0.219,0,0h0Zm-0.006-.228c-0.054-3.294-.5-4.232-3.9-4.826a2.448,2.448,0,0,1-3.189,0c-3.363.588-3.834,1.512-3.9,4.719a0.616,0.616,0,0,1-.009.245c0,0.057,0,.162,0,0.346,0,0,.809,1.58,5.5,1.58s5.5-1.58,5.5-1.58V32.164A1.87,1.87,0,0,1,279.993,31.936Z" transform="translate(-269 -20)"/>
</svg>
