<svg
 xmlns="http://www.w3.org/2000/svg"
 xmlns:xlink="http://www.w3.org/1999/xlink"
 width="19px" height="18px">
<path fill-rule="evenodd"
 d="M18.970,3.514 L17.443,9.468 C17.357,9.745 17.052,9.969 16.762,9.969 L9.501,9.969 C9.211,9.969 8.906,9.745 8.819,9.468 L6.599,3.822 C6.492,3.479 6.697,3.014 7.058,3.014 L18.601,3.014 C18.891,3.014 19.056,3.239 18.970,3.514 ZM17.527,10.993 C18.045,10.993 18.465,11.536 18.465,12.052 C18.465,12.569 18.045,13.019 17.527,13.019 L6.504,13.019 L2.625,1.864 L0.939,1.864 C0.421,1.864 0.001,1.446 0.001,0.929 C0.001,0.413 0.421,-0.006 0.939,-0.006 L3.959,-0.006 L7.838,10.993 L17.527,10.993 ZM8.528,13.928 C9.443,13.928 10.060,14.542 10.060,15.454 C10.060,16.366 9.443,17.044 8.528,17.044 C7.613,17.044 6.934,16.366 6.934,15.454 C6.934,14.542 7.613,13.928 8.528,13.928 ZM15.538,13.918 C16.453,13.918 17.132,14.595 17.132,15.507 C17.132,16.418 16.453,17.096 15.538,17.096 C14.623,17.096 13.944,16.418 13.944,15.507 C13.944,14.595 14.623,13.918 15.538,13.918 Z"/>
</svg>
