<svg
 xmlns="http://www.w3.org/2000/svg"
 xmlns:xlink="http://www.w3.org/1999/xlink"
 width="80px" height="88px">
<path fill-rule="evenodd"  fill="rgb(223, 223, 223)"
 d="M79.963,20.744 C79.963,20.410 79.890,20.075 79.743,19.760 C79.450,19.128 78.881,18.701 78.257,18.572 L40.898,0.220 C40.293,-0.077 39.578,-0.077 38.973,0.220 L1.247,18.738 C0.513,19.091 0.037,19.834 -0.000,20.670 L-0.000,20.689 C-0.000,20.707 -0.000,20.725 -0.000,20.763 L-0.000,67.234 C-0.000,68.089 0.477,68.868 1.247,69.239 L38.973,87.758 C38.991,87.758 38.991,87.758 39.009,87.776 C39.065,87.795 39.120,87.813 39.175,87.851 C39.193,87.851 39.211,87.869 39.248,87.869 C39.303,87.888 39.358,87.906 39.413,87.924 C39.431,87.924 39.450,87.943 39.468,87.943 C39.523,87.962 39.596,87.962 39.651,87.980 C39.670,87.980 39.688,87.980 39.707,87.980 C39.780,87.980 39.872,87.998 39.945,87.998 C40.018,87.998 40.110,87.998 40.183,87.980 C40.202,87.980 40.220,87.980 40.238,87.980 C40.293,87.980 40.367,87.962 40.422,87.943 C40.440,87.943 40.458,87.924 40.477,87.924 C40.532,87.906 40.587,87.888 40.642,87.869 C40.660,87.869 40.678,87.851 40.715,87.851 C40.770,87.831 40.825,87.813 40.880,87.776 C40.898,87.776 40.898,87.776 40.917,87.758 L78.753,69.184 C79.505,68.812 80.000,68.032 80.000,67.178 L80.000,20.800 C79.963,20.781 79.963,20.763 79.963,20.744 ZM39.926,4.697 L72.645,20.763 L60.596,26.688 L27.877,10.621 L39.926,4.697 ZM39.926,36.829 L7.208,20.763 L22.833,13.092 L55.552,29.158 L39.926,36.829 ZM4.401,24.348 L37.726,40.711 L37.726,82.186 L4.401,65.822 L4.401,24.348 ZM42.127,82.186 L42.127,40.711 L57.772,33.021 L57.772,43.868 C57.772,45.094 58.762,46.097 59.972,46.097 C61.183,46.097 62.173,45.094 62.173,43.868 L62.173,30.848 L75.562,24.273 L75.562,65.747 L42.127,82.186 Z"/>
</svg>
