<svg
 xmlns="http://www.w3.org/2000/svg"
 xmlns:xlink="http://www.w3.org/1999/xlink"
 width="102px" height="70px">
<path fill-rule="evenodd"  fill="rgb(223, 223, 223)"
 d="M101.834,55.823 C101.834,56.973 100.899,57.894 99.757,57.894 L95.541,57.894 C94.398,57.894 93.464,56.952 93.464,55.803 C93.464,54.653 94.398,53.711 95.541,53.711 L97.701,53.711 L97.846,25.088 L84.304,13.798 L67.564,13.798 L67.564,53.753 L71.738,53.753 C72.881,53.753 73.815,54.694 73.815,55.844 C73.815,56.994 72.881,57.935 71.738,57.935 L46.379,57.935 C45.236,57.935 44.302,56.994 44.302,55.844 C44.302,54.694 45.236,53.753 46.379,53.753 L63.410,53.753 L63.410,4.181 L14.643,4.181 L14.643,17.394 C14.643,18.545 13.708,19.485 12.566,19.485 C11.423,19.485 10.489,18.545 10.489,17.394 L10.489,2.090 C10.489,0.939 11.423,-0.001 12.566,-0.001 L65.466,-0.001 C66.608,-0.001 67.543,0.939 67.543,2.090 L67.543,9.617 L85.031,9.617 C85.530,9.617 85.987,9.784 86.360,10.098 L101.232,22.496 C101.709,22.894 101.979,23.499 102.000,24.127 L101.834,55.823 ZM35.724,21.137 C36.866,21.137 37.801,22.078 37.801,23.228 C37.801,24.378 36.866,25.318 35.724,25.318 L10.530,25.318 C9.388,25.318 8.453,24.378 8.453,23.228 C8.453,22.078 9.388,21.137 10.530,21.137 L35.724,21.137 ZM33.585,32.887 C33.564,34.037 32.629,34.957 31.487,34.957 L6.293,34.811 C5.151,34.811 4.216,33.870 4.237,32.699 C4.237,31.549 5.172,30.629 6.314,30.629 C6.314,30.629 6.314,30.629 6.335,30.629 L31.528,30.776 C32.671,30.776 33.605,31.716 33.585,32.887 ZM29.348,42.359 C29.348,43.529 28.413,44.450 27.271,44.450 L2.077,44.450 C0.935,44.450 -0.000,43.509 -0.000,42.359 C-0.000,41.208 0.935,40.268 2.077,40.268 L27.271,40.268 C28.413,40.268 29.348,41.208 29.348,42.359 ZM12.566,46.101 C13.708,46.101 14.643,47.042 14.643,48.192 L14.643,53.753 L18.817,53.753 C19.960,53.753 20.894,54.694 20.894,55.844 C20.894,56.994 19.960,57.935 18.817,57.935 L12.566,57.935 C11.423,57.935 10.489,56.994 10.489,55.844 L10.489,48.192 C10.489,47.042 11.423,46.101 12.566,46.101 ZM32.671,51.182 C37.780,51.182 41.934,55.406 41.934,60.590 C41.934,65.775 37.780,69.999 32.671,69.999 C30.178,69.999 27.831,69.016 26.024,67.239 C24.217,65.441 23.241,63.099 23.241,60.590 C23.241,58.082 24.238,55.739 26.024,53.941 C27.811,52.164 30.178,51.182 32.671,51.182 ZM32.671,65.817 C35.495,65.817 37.780,63.475 37.780,60.590 C37.780,57.705 35.495,55.363 32.671,55.363 C29.804,55.363 27.395,57.747 27.395,60.590 C27.395,63.434 29.804,65.817 32.671,65.817 ZM90.660,40.623 L73.753,40.623 C72.611,40.623 71.676,39.682 71.676,38.532 L71.676,21.388 C71.676,20.238 72.611,19.297 73.753,19.297 L84.408,19.297 C84.927,19.297 85.426,19.485 85.800,19.841 L92.051,25.506 C92.487,25.904 92.737,26.469 92.737,27.054 L92.737,38.532 C92.737,39.682 91.802,40.623 90.660,40.623 ZM88.583,27.974 L83.598,23.458 L75.830,23.458 L75.830,36.442 L88.583,36.442 L88.583,27.974 ZM83.390,51.182 C88.500,51.182 92.654,55.406 92.654,60.590 C92.654,65.775 88.500,69.999 83.390,69.999 C80.898,69.999 78.551,69.016 76.744,67.239 C74.937,65.441 73.961,63.099 73.961,60.590 C73.961,58.082 74.958,55.739 76.744,53.941 C78.530,52.164 80.898,51.182 83.390,51.182 ZM83.390,65.817 C86.215,65.817 88.500,63.475 88.500,60.590 C88.500,57.705 86.215,55.363 83.390,55.363 C80.524,55.363 78.115,57.747 78.115,60.590 C78.115,63.434 80.524,65.817 83.390,65.817 Z"/>
</svg>
