<?xml version="1.0" encoding="utf-8"?>
<!-- Generator: Adobe Illustrator 22.0.1, SVG Export Plug-In . SVG Version: 6.00 Build 0)  -->
<svg version="1.1" id="Слой_1" xmlns="http://www.w3.org/2000/svg" xmlns:xlink="http://www.w3.org/1999/xlink" x="0px" y="0px"
	 viewBox="0 0 39.6 32.9" style="enable-background:new 0 0 39.6 32.9;" xml:space="preserve">
<style type="text/css">
	.st0{fill:#0EAF31;}
</style>
<g>
	<g>
		<path class="st0" d="M16.9,13.2c-0.8,0-1.4,0.6-1.4,1.4c0,0.8,0.6,1.4,1.4,1.4c0.8,0,1.4-0.6,1.4-1.4
			C18.3,13.9,17.7,13.2,16.9,13.2z M24.1,13.2c-0.8,0-1.4,0.6-1.4,1.4c0,0.8,0.6,1.4,1.4,1.4c0.8,0,1.4-0.6,1.4-1.4
			C25.6,13.9,24.9,13.2,24.1,13.2z M35.8,19.3l1.7-0.4L37,16.8l-1.4,0.3c-0.2-1.2-0.5-2.3-0.9-3.4c1.2-3.4,1.4-7.3,0.4-11.2
			l-0.3-1.1l-1.1,0.3c-0.5,0.1-4.5,1.3-6.4,3.1c-0.3-0.2-0.6-0.3-0.9-0.5c-1.9-0.9-3.9-1.4-6-1.4c-2.1,0-4.1,0.5-6,1.4
			c-0.3,0.1-0.6,0.3-0.9,0.5c-1.9-1.8-5.9-3-6.4-3.1L6.1,1.5L5.9,2.6c-1,3.8-0.9,7.8,0.4,11.2c-0.4,1.1-0.7,2.3-0.9,3.4L4,16.8
			l-0.5,2.1l1.7,0.4c0,2.1,0.5,4.1,1.3,5.8l-3,0.7L4,27.9L7.8,27c0.6,0.7,1.2,1.4,2,2c2.7,2.2,6.6,3.5,10.7,3.5s8-1.2,10.7-3.5
			c0.8-0.6,1.4-1.3,2-2l3.8,0.9l0.5-2.1l-3-0.7C35.3,23.4,35.8,21.4,35.8,19.3z M7.7,4.2c1.2,0.4,3,1.1,4,1.9
			c-0.7,0.6-1.5,1.2-2.1,2c-0.7,0.8-1.4,1.7-2,2.6C7.3,8.7,7.3,6.4,7.7,4.2z M19.1,23.1c-0.6-0.6-0.9-1.1-0.9-1.4
			c0-0.3,0-0.3,0.2-0.3c0.5-0.2,1.4-0.2,2.1-0.2c0.7,0,1.6,0,2.1,0.2c0.2,0.1,0.2,0.1,0.2,0.3c0,0.3-0.3,0.9-0.9,1.4
			c-0.6,0.5-1.1,0.8-1.4,0.8C20.2,23.9,19.6,23.6,19.1,23.1z M32.2,24.6l-4.2-1l-0.5,2.1l3.3,0.8c-0.3,0.3-0.6,0.6-1,0.9
			c-2.1,1.7-5,2.7-8.2,2.9v-4.4c0.9-0.3,1.6-0.9,1.9-1.3c0.5-0.4,1.5-1.6,1.5-2.9c0-1.1-0.6-1.9-1.5-2.3c-0.7-0.3-1.5-0.4-2.9-0.4
			c-1.4,0-2.3,0.1-2.9,0.4c-1,0.4-1.5,1.2-1.5,2.3c0,1.3,1.1,2.5,1.5,2.9c0.3,0.3,1,0.9,1.9,1.3v4.4c-3.2-0.2-6.1-1.2-8.2-2.9
			c-0.4-0.3-0.7-0.6-1-0.9l3.3-0.8L13,23.6l-4.2,1c-0.8-1.4-1.3-3-1.3-4.8l5.6,1.3l0.5-2.1l-6-1.4c0.4-2.9,1.7-5.8,3.8-8.1
			c2.5-2.8,5.8-4.4,9.2-4.4c3.4,0,6.7,1.6,9.2,4.4c2.1,2.3,3.4,5.2,3.8,8.1l-6,1.4l0.5,2.1l5.6-1.3C33.5,21.6,33.1,23.2,32.2,24.6z
			 M33.3,10.7c-0.6-0.9-1.2-1.8-2-2.6c-0.7-0.7-1.4-1.4-2.1-2c1-0.8,2.8-1.5,4-1.9C33.7,6.4,33.7,8.7,33.3,10.7z"/>
	</g>
</g>
</svg>
