<svg
 xmlns="http://www.w3.org/2000/svg"
 xmlns:xlink="http://www.w3.org/1999/xlink"
 width="74px" height="74px">
<path fill-rule="evenodd"  fill="rgb(223, 223, 223)"
 d="M37.000,74.000 C16.597,74.000 -0.001,57.401 -0.001,36.999 C-0.001,16.597 16.597,-0.003 37.000,-0.003 C57.402,-0.003 74.001,16.597 74.001,36.999 C74.001,57.401 57.402,74.000 37.000,74.000 ZM37.000,7.871 C20.939,7.871 7.871,20.937 7.871,36.999 C7.871,53.061 20.939,66.127 37.000,66.127 C53.061,66.127 66.128,53.061 66.128,36.999 C66.128,20.937 53.061,7.871 37.000,7.871 ZM56.283,41.950 L36.609,41.950 C34.926,41.950 33.562,40.585 33.562,38.903 L33.562,15.863 C33.562,14.180 34.926,12.816 36.609,12.816 C38.292,12.816 39.656,14.180 39.656,15.863 L39.656,35.856 L56.283,35.856 C57.966,35.856 59.330,37.220 59.330,38.903 C59.330,40.585 57.966,41.950 56.283,41.950 Z"/>
</svg>
