<?xml version="1.0" encoding="utf-8"?>
<!-- Generator: Adobe Illustrator 22.0.1, SVG Export Plug-In . SVG Version: 6.00 Build 0)  -->
<svg version="1.1" id="Слой_1" xmlns="http://www.w3.org/2000/svg" xmlns:xlink="http://www.w3.org/1999/xlink" x="0px" y="0px"
	 viewBox="0 0 39.6 32.9" style="enable-background:new 0 0 39.6 32.9;" xml:space="preserve">
<style type="text/css">
	.st0{fill:#0EAF31;}
</style>
<g>
	<g>
		<path class="st0" d="M36,9.1c-1.1-1.8-2.7-3.6-3.7-4.5c-2.3-2-4.2-2-5.2-1.8c-0.4,0.1-0.8,0.2-1.1,0.4c-1.6-1.2-3.6-1.8-6.1-1.8
			s-4.4,0.6-6.1,1.8c-0.3-0.2-0.7-0.3-1.1-0.4C11.9,2.7,10,2.6,7.7,4.6C6.6,5.5,5.1,7.3,3.9,9.1c-1.5,2.5-1.8,4.5-1,6
			c1,1.8,2.6,2.3,3.9,2.4c-0.3,1.2-0.5,2.5-0.5,4c0,2.1,0.5,3.9,1.4,5.4c0.8,1.3,2.1,2.3,3.6,3.1c2.9,1.4,6.3,1.5,8.6,1.5
			c2.3,0,5.8-0.2,8.6-1.5c1.5-0.7,2.8-1.8,3.6-3.1c1-1.5,1.4-3.3,1.4-5.4c0-1.6-0.2-2.8-0.5-4c1.3-0.1,2.8-0.6,3.9-2.4
			C37.9,13.7,37.5,11.6,36,9.1z M7.5,15.5c-1.1,0-2-0.2-2.7-1.3c-0.4-0.7-0.1-2.2,1-3.9c1-1.6,2.4-3.2,3.3-4
			c1.5-1.3,2.6-1.4,3.1-1.3c-1.6,1.9-2.5,4.3-3.3,6.7c-0.3,1-0.7,1.8-1,2.6C7.8,14.6,7.6,15.1,7.5,15.5z M20,23.2
			c-0.3,0-0.9-0.3-1.4-0.8c-0.6-0.5-0.8-1.1-0.8-1.4c0-0.3,0-0.3,0.2-0.3c0.5-0.2,1.4-0.2,2-0.2c0.6,0,1.6,0,2,0.2
			c0.2,0.1,0.2,0.1,0.2,0.3c0,0.3-0.3,0.9-0.8,1.4C20.8,22.9,20.3,23.2,20,23.2z M27.7,28.1c-1.6,0.8-3.8,1.2-6.6,1.3v-4.3
			c0.8-0.3,1.5-0.9,1.8-1.2c0.4-0.4,1.5-1.6,1.5-2.9c0-1.1-0.5-1.9-1.5-2.3c-0.7-0.3-1.5-0.4-2.9-0.4c-1.4,0-2.2,0.1-2.9,0.4
			c-1,0.4-1.5,1.2-1.5,2.3c0,1.3,1,2.5,1.5,2.9c0.3,0.3,1,0.9,1.8,1.2v4.3c-2.8-0.1-5-0.5-6.6-1.3c-2.6-1.2-3.8-3.4-3.8-6.5
			c0-2.7,0.6-4.3,1.5-6.6c0.3-0.8,0.6-1.7,1-2.7c1.9-5.6,3.9-8.6,9-8.6c5.2,0,7.2,3,9,8.6c0.3,1,0.7,1.9,1,2.7
			c0.9,2.3,1.5,3.9,1.5,6.6C31.5,24.7,30.3,26.9,27.7,28.1z M35.2,14.1c-0.6,1.1-1.5,1.3-2.7,1.3c-0.1-0.4-0.3-0.8-0.5-1.3
			c-0.3-0.8-0.6-1.6-1-2.6c-0.8-2.4-1.8-4.8-3.3-6.7c0.5-0.1,1.6,0,3.1,1.3c0.9,0.8,2.3,2.4,3.3,4C35.2,11.9,35.6,13.4,35.2,14.1z
			 M16.4,12.7c-0.8,0-1.4,0.6-1.4,1.4c0,0.8,0.6,1.4,1.4,1.4c0.8,0,1.4-0.6,1.4-1.4C17.8,13.3,17.2,12.7,16.4,12.7z M23.5,12.7
			c-0.8,0-1.4,0.6-1.4,1.4c0,0.8,0.6,1.4,1.4,1.4c0.8,0,1.4-0.6,1.4-1.4C25,13.3,24.3,12.7,23.5,12.7z"/>
	</g>
</g>
</svg>
