<?xml version="1.0" encoding="utf-8"?>
<!-- Generator: Adobe Illustrator 22.0.1, SVG Export Plug-In . SVG Version: 6.00 Build 0)  -->
<svg version="1.1" id="Слой_1" xmlns="http://www.w3.org/2000/svg" xmlns:xlink="http://www.w3.org/1999/xlink" x="0px" y="0px"
	 viewBox="0 0 44.1 41.1" style="enable-background:new 0 0 44.1 41.1;" xml:space="preserve">
<style type="text/css">
	.st0{fill:#0EAF31;}
</style>
<path class="st0" d="M35.4,18.3C35.4,18.3,35.4,18.3,35.4,18.3C35.4,18.3,35.4,18.3,35.4,18.3c-0.2-0.2-0.4-0.4-0.5-0.5
	c-2.7-2.3-6.3-3.1-9.7-2.3v-1.7c0-5.1-4.2-9.3-9.3-9.3c-5.1,0-9.3,4.2-9.3,9.3v13.3c0,5.1,4.2,9.3,9.3,9.3c2.2,0,4.2-0.8,5.8-2
	c1.9,1.3,4,2,6.2,2c3,0,5.9-1.2,8.1-3.7C39.6,28.6,39.3,22.2,35.4,18.3z M25.2,18.3c2.5-0.9,5.2-0.5,7.3,1l-7.3,7.3V18.3z
	 M22.5,27.2c0,3.7-3,6.7-6.7,6.7c-3.7,0-6.7-3-6.7-6.7v-5.3h13.3L22.5,27.2L22.5,27.2z M22.5,19.2H9.2v-5.3c0-3.7,3-6.7,6.7-6.7
	s6.7,3,6.7,6.7V19.2L22.5,19.2z M33.9,31.1c-1.4,1.6-3.4,2.6-5.5,2.7c-1.8,0.1-3.5-0.3-4.9-1.3c0.3-0.4,0.5-0.8,0.7-1.2c0,0,0,0,0,0
	l10.2-10.1C36.4,24.1,36.3,28.2,33.9,31.1z"/>
</svg>
