<?xml version="1.0" encoding="utf-8"?>
<!-- Generator: Adobe Illustrator 22.0.1, SVG Export Plug-In . SVG Version: 6.00 Build 0)  -->
<svg version="1.1" id="Слой_1" xmlns="http://www.w3.org/2000/svg" xmlns:xlink="http://www.w3.org/1999/xlink" x="0px" y="0px"
	 viewBox="0 0 44.1 32.9" style="enable-background:new 0 0 44.1 32.9;" xml:space="preserve">
<style type="text/css">
	.st0{fill:#0EAF31;}
</style>
<g>
	<g>
		<path class="st0" d="M42.2,15.5c-0.1-0.1-1.3-2.6-3.6-5.2C35.5,6.8,31.9,5,28.2,5c-0.6,0-1.2,0-1.8,0.1C25.9,4.7,25.1,4,24,3.5
			c-1.7-0.8-4.5-1.5-8-0.4l-1.5,0.5l2.9,4.5c-0.1,0.1-0.3,0.1-0.4,0.2c-2.3,1.2-4.4,2.8-6,4.1C9.7,9.7,6.9,7.8,3.7,7.8
			c-0.4,0-0.7,0-1.1,0.1L1.7,8L1.6,8.9c0,0.4-0.1,0.7-0.1,1.1c0,2.2,0.8,4.3,2.3,6c-1.5,1.6-2.3,3.7-2.3,6c0,0.4,0,0.7,0.1,1.1
			L1.7,24l0.9,0.1c0.4,0.1,0.7,0.1,1.1,0.1c3.2,0,6-1.9,7.3-4.7c1.5,1.4,3.7,2.9,6,4.1c0.1,0.1,0.3,0.1,0.4,0.2l-2.9,4.5l1.5,0.5
			c1.3,0.4,2.6,0.6,3.7,0.6c1.8,0,3.3-0.5,4.4-1c1.2-0.5,2-1.2,2.5-1.6c0.6,0.1,1.2,0.1,1.8,0.1c3.7,0,7.3-1.8,10.5-5.3
			c2.3-2.5,3.6-5.1,3.6-5.2l0.3-0.5L42.2,15.5z M3.9,21.8C4,19.9,4.8,18.1,6.3,17l1.2-1l-1.2-1c-1.5-1.2-2.3-2.9-2.4-4.8
			c3,0.1,5.5,2.6,5.5,5.8C9.4,19.1,7,21.6,3.9,21.8z M23.1,5.8c-1.3,0.4-2.5,0.8-3.6,1.3l-1.3-2C20.3,4.7,22,5.2,23.1,5.8z M18.2,27
			l1.3-2c1.1,0.5,2.3,1,3.6,1.3C22,26.8,20.3,27.3,18.2,27z M28.2,24.6c-2.9,0-6.5-1.1-10.1-3c-3-1.6-5.2-3.4-6.4-4.7
			c0-0.3,0-0.5,0-0.8c0-0.3,0-0.6,0-0.8c1.1-1.2,3.4-3.1,6.4-4.7c3.6-2,7.2-3,10.1-3c0.8,0,1.5,0.1,2.2,0.3
			c-1.6,2.4-2.5,5.3-2.5,8.3c0,3,0.9,5.9,2.5,8.3C29.7,24.5,28.9,24.6,28.2,24.6z M32.7,23.4c-1.6-2.1-2.4-4.7-2.4-7.4
			c0-2.7,0.9-5.3,2.4-7.4c3.8,2,6.3,5.9,7.1,7.4C39,17.4,36.5,21.4,32.7,23.4z M32.7,15.4h2.4V13h-2.4V15.4z"/>
	</g>
</g>
</svg>
