<?xml version="1.0" encoding="utf-8"?>
<!-- Generator: Adobe Illustrator 22.0.1, SVG Export Plug-In . SVG Version: 6.00 Build 0)  -->
<svg version="1.1" id="Слой_1" xmlns="http://www.w3.org/2000/svg" xmlns:xlink="http://www.w3.org/1999/xlink" x="0px" y="0px"
	 viewBox="0 0 39.6 32.9" style="enable-background:new 0 0 39.6 32.9;" xml:space="preserve">
<style type="text/css">
	.st0{fill:#0EAF31;}
</style>
<g>
	<g>
		<path class="st0" d="M8.6,1.5C5.5,2,3,4.5,2.6,7.6C2.5,8,2.5,9.1,2.5,9.5c0.3,2.1,1.4,3.9,3.1,5.1C6,14.8,6.9,15.2,7,15.2
			c0,0,0,0.1-0.1,0.3c-0.2,0.5-0.4,1.3-0.5,1.9c-0.1,0.3-0.1,0.6-0.1,0.6c0,0,0,0.1-0.1,0.1c0,0-0.4-0.1-0.8-0.3
			c-0.7-0.2-0.8-0.3-1.1-0.3c-0.2,0-0.3,0-0.5,0.1c-0.2,0.1-0.5,0.3-0.6,0.5c-0.1,0.2-0.1,0.2-0.1,0.5c0,0.3,0,0.3,0.1,0.5
			c0.1,0.2,0.3,0.4,0.4,0.5c0.1,0,0.6,0.2,1.2,0.4L6,20.5l0,0.7c0,1.3,0.2,2.5,0.5,3.6c0,0.1,0.1,0.3,0.1,0.3
			c-0.1,0-2.7,0.8-2.8,0.8c-0.2,0.1-0.4,0.4-0.5,0.6c-0.1,0.2-0.1,0.6,0,0.8c0.2,0.5,0.6,0.8,1.1,0.8c0.2,0,0.5-0.1,1.7-0.4
			c0.8-0.2,1.5-0.4,1.6-0.5c0,0,0.1,0.1,0.3,0.2c1.4,1.8,3.5,3.1,6.2,3.8c1.2,0.3,2.6,0.5,4.1,0.6c0.8,0.1,3.5,0,4.3,0
			c3.7-0.3,6.4-1.2,8.5-2.8c0.6-0.4,1.4-1.3,1.8-1.8l0.1-0.1l1.5,0.4c0.8,0.2,1.6,0.4,1.7,0.5c0.2,0,0.5,0,0.7-0.1
			c0.2-0.1,0.5-0.4,0.6-0.6c0.1-0.3,0.1-0.7,0-0.9c-0.1-0.2-0.3-0.4-0.5-0.5c-0.1,0-0.8-0.3-1.5-0.5c-0.7-0.2-1.3-0.4-1.3-0.4
			s0-0.1,0.1-0.3c0.3-1.1,0.5-2,0.5-3.3l0-0.9l1.1-0.4c1.2-0.4,1.3-0.4,1.5-0.7c0.4-0.6,0.2-1.4-0.5-1.7c-0.2-0.1-0.2-0.1-0.5-0.1
			c-0.3,0-0.3,0-1.1,0.3c-0.5,0.2-0.8,0.3-0.8,0.3c0,0,0-0.1-0.1-0.3c-0.1-0.5-0.3-1.4-0.5-2c-0.1-0.3-0.2-0.5-0.2-0.5
			c0,0,0.1,0,0.2-0.1c2.2-0.9,3.8-3,4.2-5.4C38,9.3,38,8.3,38,7.9c-0.2-1.8-1.1-3.6-2.5-4.7c-1.1-0.9-2.4-1.5-3.7-1.6
			c-0.4,0-1.4,0-1.8,0c-0.9,0.1-2,0.5-2.8,1c-0.8,0.5-1.6,1.3-2.1,2l-0.1,0.2l-0.4-0.2c-0.8-0.4-1.9-0.7-2.8-0.8
			c-0.4-0.1-0.6-0.1-1.5-0.1c-1.1,0-1.3,0-2.1,0.2c-0.7,0.2-1.7,0.5-2.3,0.8c-0.2,0.1-0.2,0.1-0.2,0c-0.1-0.1-0.5-0.7-0.8-1
			c-1.1-1.2-2.7-2-4.3-2.2C10.1,1.5,9,1.5,8.6,1.5z M10.5,3.9c1.4,0.3,2.6,1.2,3.3,2.4C13.9,6.6,13.9,6.6,14,7
			c0.1,1.9,0.6,3.4,1.3,4.9c0.9,1.7,2.2,3,3.7,3.4c0.8,0.2,1.8,0.2,2.6,0c1.8-0.5,3.3-2.2,4.3-4.8c0.4-1,0.7-2.5,0.7-3.6
			c0-0.4,0-0.4,0.1-0.6c0.3-0.7,0.9-1.3,1.6-1.8C28.8,4.3,29.4,4,30,3.9c0.4-0.1,1.3-0.1,1.8,0c0.7,0.1,1.4,0.5,1.9,0.9
			c0.6,0.4,1.1,1.1,1.5,1.7c0.2,0.3,0.4,0.9,0.4,1.3c0.1,0.4,0.1,1.1,0,1.6c-0.2,1-0.6,1.9-1.3,2.6c-0.7,0.7-1.4,1.1-2.4,1.3
			c-0.2,0-0.4,0.1-0.5,0.2c-0.2,0.1-0.4,0.3-0.5,0.5c-0.1,0.2-0.1,0.2-0.1,0.5c0,0.3,0,0.3,0.2,0.9c0.3,0.6,0.5,1.4,0.7,2.1
			c0.2,0.6,0.3,1.4,0.3,1.4c0,0-0.9,0.3-2,0.7c-1.1,0.4-2,0.7-2.1,0.7c-0.2,0.1-0.4,0.3-0.5,0.5c-0.1,0.2-0.1,0.2-0.1,0.5
			c0,0.3,0,0.4,0.1,0.5c0.1,0.2,0.3,0.4,0.6,0.6c0.2,0.1,0.2,0.1,0.5,0.1c0.3,0,0.3,0,2-0.6c1-0.3,1.7-0.6,1.7-0.6
			c0,0-0.1,1.1-0.1,1.4c-0.1,0.4-0.2,0.9-0.3,1.3c-0.1,0.2-0.1,0.3-0.1,0.3s-0.7-0.2-1.5-0.4c-1.4-0.4-1.5-0.4-1.8-0.4
			c-0.3,0-0.3,0-0.5,0.1c-0.2,0.1-0.4,0.3-0.6,0.6c-0.1,0.2-0.1,0.2-0.1,0.5c0,0.3,0,0.3,0.1,0.5c0.1,0.2,0.3,0.4,0.5,0.5
			c0.1,0,0.6,0.2,1.3,0.4c0.6,0.2,1.1,0.3,1.1,0.3c0.1,0.1-0.8,0.8-1.3,1.1c-1.7,1.2-4.1,1.8-7.3,2l-0.2,0v-1.1v-1.1l0.1,0
			c1.8-0.4,3-1.4,3.4-2.8c0.1-0.4,0.1-1,0-1.4c-0.3-1-1.1-1.9-2.3-2.4c-1.7-0.7-4-0.6-5.5,0.4c-1.8,1.2-2.1,3.3-0.7,4.8
			c0.6,0.6,1.5,1.1,2.6,1.3l0.1,0v1.1v1.1l-0.2,0c-2.1-0.1-3.6-0.4-5-0.8c-1.5-0.5-2.6-1.1-3.5-2l-0.3-0.3l1.2-0.3
			c0.6-0.2,1.2-0.4,1.3-0.4c0.2-0.1,0.4-0.4,0.5-0.6c0.1-0.1,0.1-0.2,0.1-0.5c0-0.3,0-0.3-0.1-0.5c-0.1-0.2-0.3-0.5-0.6-0.6
			c-0.1,0-0.3-0.1-0.4-0.1c-0.2,0-0.3,0-1.7,0.4c-0.8,0.2-1.5,0.4-1.5,0.4c0,0-0.1,0-0.2-0.4c-0.2-0.7-0.4-1.5-0.4-2.3
			c0-0.4,0-0.5,0-0.4c0,0,0.8,0.3,1.7,0.6c1.6,0.5,1.7,0.6,2,0.6c0.2,0,0.3,0,0.5-0.1c0.3-0.1,0.4-0.3,0.6-0.6
			c0.1-0.2,0.1-0.2,0.1-0.5c0-0.3,0-0.3-0.1-0.5c-0.1-0.3-0.4-0.5-0.6-0.6c-0.1,0-1.1-0.4-2.1-0.7c-1-0.3-1.9-0.6-1.9-0.6
			c0,0,0.2-0.9,0.3-1.4c0.2-0.7,0.4-1.3,0.7-2.1c0.2-0.6,0.2-0.6,0.2-0.9c0-0.2,0-0.3-0.1-0.5c-0.1-0.2-0.3-0.5-0.5-0.6
			c-0.1,0-0.3-0.1-0.6-0.2C8,13.1,7.6,13,7.2,12.7c-1.2-0.7-2-1.8-2.3-3.2c-0.1-0.5-0.1-1.3,0-1.8c0.2-1,0.6-1.8,1.3-2.5
			C7,4.4,8,4,9.2,3.8C9.4,3.8,10.2,3.8,10.5,3.9z M20.9,6c1,0.1,2,0.4,2.9,0.8L24.2,7l0,0.2c-0.3,2.9-1.6,5.3-3.3,5.8
			c-0.6,0.2-1,0.1-1.6-0.1c-1.1-0.5-2-1.9-2.6-3.8c-0.2-0.6-0.4-1.7-0.4-2.1V7l0.4-0.2C18.1,6.1,19.5,5.9,20.9,6z M21.2,22.8
			c0.8,0.2,1.4,0.7,1.4,1.1c0,0.4-0.6,0.9-1.4,1.1c-0.3,0.1-0.4,0.1-1,0.1c-0.6,0-0.7,0-0.9-0.1c-0.9-0.2-1.5-0.7-1.5-1.1
			c0-0.5,0.8-1,1.7-1.2C20,22.7,20.8,22.7,21.2,22.8z"/>
		<path class="st0" d="M14.1,15.5c-0.4,0.1-0.7,0.3-1,0.5c-0.7,0.9-0.3,2.1,0.7,2.5c0.2,0.1,0.3,0.1,0.6,0.1c0.3,0,0.4,0,0.6-0.1
			c0.6-0.3,0.9-0.8,0.9-1.4c0-0.5-0.2-0.8-0.5-1.1C15.1,15.6,14.6,15.4,14.1,15.5z"/>
		<path class="st0" d="M25.6,15.6c-0.4,0.1-0.8,0.4-0.9,0.8c-0.1,0.2-0.1,0.3-0.1,0.6c0,0.3,0,0.4,0.1,0.6c0.2,0.7,0.9,1.1,1.6,1.1
			c0.3,0,0.5-0.1,0.8-0.3c0.8-0.5,0.9-1.7,0.3-2.4c-0.2-0.2-0.4-0.3-0.7-0.4C26.3,15.5,25.9,15.5,25.6,15.6z"/>
	</g>
</g>
</svg>
