<?xml version="1.0" encoding="utf-8"?>
<!-- Generator: Adobe Illustrator 22.0.1, SVG Export Plug-In . SVG Version: 6.00 Build 0)  -->
<svg version="1.1" id="Слой_1" xmlns="http://www.w3.org/2000/svg" xmlns:xlink="http://www.w3.org/1999/xlink" x="0px" y="0px"
	 viewBox="0 0 44.1 41.1" style="enable-background:new 0 0 44.1 41.1;" xml:space="preserve">
<style type="text/css">
	.st0{fill:#0EAF31;}
</style>
<g>
	<g>
		<path class="st0" d="M30,8.5h-0.7c-1.1-1.6-2.9-2.7-5-2.8C22.9,5.2,22,4,22,2.6c0-0.6-0.5-1.1-1.1-1.1c-0.6,0-1.1,0.5-1.1,1.1
			c0,1.4,0.5,2.7,1.4,3.6c0,0,0,0,0,0c-1.1,0-1.9-0.9-1.9-2c0-0.6-0.5-1.1-1.1-1.1c-0.6,0-1.1,0.5-1.1,1.1c0,1.5,0.8,2.8,2,3.5
			c-1,1.1-1.6,2.6-1.6,4.2v4.1c-0.4,0.2-0.8,0.4-1.2,0.7c-1.3,1-2.2,2.4-2.4,3.9l-1.2,7.5L8.4,31c-0.8,0.6-1.2,1.5-0.8,2.5
			c0.3,0.8,1.1,1.3,2,1.3c0.1,0,0.2,0,0.3,0l1.7-0.2l0,0.1c-0.2,1.3,0.5,2.5,1.8,3c0.4,0.1,0.7,0.2,1.1,0.2c0.9,0,1.8-0.4,2.3-1.2
			l2.3-3.2l1.1-0.2v4.1c0,0.6,0.5,1.1,1.1,1.1h2.6c0.6,0,1.1-0.5,1.1-1.1c0-0.6-0.5-1.1-1.1-1.1h-1.5v-3.7c4.6-1.6,8-5.9,8-10.9
			v-2.3c1.7-0.5,3.1-1.6,3.9-3.1l0.2-0.4h0.9c0.6,0,1.1-0.5,1.1-1.1C36.5,11.4,33.6,8.5,30,8.5z M11.9,32.3L10,32.5l2.1-1.4
			L11.9,32.3z M14.9,35.4c-0.3,0.4-0.6,0.3-0.8,0.2c-0.1-0.1-0.5-0.2-0.4-0.7L16,21c0.3-2.1,2.3-3.5,4.5-3.3c1.4,0.2,2.6,1,3.1,2.3
			c0.6,1.3,0.4,2.7-0.4,3.8L14.9,35.4z M28.1,21.8c0,4.4-3.1,8.1-7.2,9.1l4.1-5.8c1.2-1.7,1.5-4,0.6-5.9c-0.9-2-2.7-3.3-4.8-3.6
			c-0.4,0-0.7-0.1-1.1,0V12c0-2.3,1.9-4.1,4.2-4.1c2.3,0,4.2,1.9,4.2,4.1V21.8z M30.3,17.2V16h1.5C31.4,16.5,30.9,16.9,30.3,17.2z
			 M30.3,13.8V12c0-0.4,0-0.9-0.1-1.3c1.9,0.1,3.5,1.4,4,3.1H30.3z M25.2,10.7c-0.6,0-1.1,0.5-1.1,1.1c0,0.6,0.5,1.1,1.1,1.1
			s1.1-0.5,1.1-1.1C26.3,11.2,25.8,10.7,25.2,10.7z"/>
	</g>
</g>
</svg>
