<svg xmlns="http://www.w3.org/2000/svg" width="8.782" height="16.938" viewBox="0 0 8.782 16.938">
  <metadata><?xpacket begin="﻿" id="W5M0MpCehiHzreSzNTczkc9d"?>
<x:xmpmeta xmlns:x="adobe:ns:meta/" x:xmptk="Adobe XMP Core 5.6-c140 79.160451, 2017/05/06-01:08:21        ">
   <rdf:RDF xmlns:rdf="http://www.w3.org/1999/02/22-rdf-syntax-ns#">
      <rdf:Description rdf:about=""/>
   </rdf:RDF>
</x:xmpmeta>
                                                                                                    
                                                                                                    
                                                                                                    
                                                                                                    
                                                                                                    
                                                                                                    
                                                                                                    
                                                                                                    
                                                                                                    
                                                                                                    
                                                                                                    
                                                                                                    
                                                                                                    
                                                                                                    
                                                                                                    
                                                                                                    
                                                                                                    
                                                                                                    
                                                                                                    
                                                                                                    
                           
<?xpacket end="w"?></metadata>
<defs>
    <style>
      .cls-1 {
        fill: #bcbcbc;
        fill-rule: evenodd;
      }
    </style>
  </defs>
  <path id="Forma_1_copy_2" data-name="Forma 1 copy 2" class="cls-1" d="M803.683,24.029h-6.469a1.159,1.159,0,0,0-1.155,1.166V39.8a1.159,1.159,0,0,0,1.155,1.165h6.469a1.16,1.16,0,0,0,1.154-1.165v-14.6A1.16,1.16,0,0,0,803.683,24.029Zm-4.862.708h3.3a0.308,0.308,0,0,1,0,.561h-3.3A0.282,0.282,0,0,1,798.821,24.737Zm1.68,14.513a0.743,0.743,0,1,1,.735-0.744A0.742,0.742,0,0,1,800.5,39.249Zm3.471-2.267h-7.048V26h7.048V36.983Z" transform="translate(-796.062 -24.031)"/>
</svg>
