<svg xmlns="http://www.w3.org/2000/svg" width="25" height="29" viewBox="0 0 25 29">
  <metadata><?xpacket begin="﻿" id="W5M0MpCehiHzreSzNTczkc9d"?>
<x:xmpmeta xmlns:x="adobe:ns:meta/" x:xmptk="Adobe XMP Core 5.6-c140 79.160451, 2017/05/06-01:08:21        ">
   <rdf:RDF xmlns:rdf="http://www.w3.org/1999/02/22-rdf-syntax-ns#">
      <rdf:Description rdf:about=""/>
   </rdf:RDF>
</x:xmpmeta>
                                                                                                    
                                                                                                    
                                                                                                    
                                                                                                    
                                                                                                    
                                                                                                    
                                                                                                    
                                                                                                    
                                                                                                    
                                                                                                    
                                                                                                    
                                                                                                    
                                                                                                    
                                                                                                    
                                                                                                    
                                                                                                    
                                                                                                    
                                                                                                    
                                                                                                    
                                                                                                    
                           
<?xpacket end="w"?></metadata>
<defs>
    <style>
      .cls-1 {
        fill-rule: evenodd;
      }
    </style>
  </defs>
  <path class="cls-1" d="M1460.09,3416.75a10.44,10.44,0,0,1,14.17-.4l-3.24.13a0.791,0.791,0,0,0-.73.83,0.782,0.782,0,0,0,.76.77h0.02l4.98-.19a0.783,0.783,0,0,0,.73-0.8v-0.1h0l-0.18-5.22a0.78,0.78,0,0,0-.79-0.77,0.77,0.77,0,0,0-.72.83l0.12,3.27a11.861,11.861,0,0,0-16.13.47,13.651,13.651,0,0,0-3.73,12.85,0.753,0.753,0,0,0,.73.61,0.554,0.554,0,0,0,.18-0.02,0.81,0.81,0,0,0,.55-0.97A12.024,12.024,0,0,1,1460.09,3416.75Zm19.56,5.83a0.751,0.751,0,0,0-.91-0.59,0.81,0.81,0,0,0-.55.97,12,12,0,0,1-3.28,11.29,10.433,10.433,0,0,1-14.26.32l3.28-.31a0.791,0.791,0,0,0,.68-0.88,0.764,0.764,0,0,0-.82-0.72l-4.96.48a0.783,0.783,0,0,0-.68.87l0.44,5.26a0.779,0.779,0,0,0,.75.73,0.17,0.17,0,0,0,.07-0.01,0.783,0.783,0,0,0,.68-0.87l-0.27-3.2a11.98,11.98,0,0,0,7.17,2.9c0.21,0.01.42,0.01,0.63,0.01a11.912,11.912,0,0,0,8.3-3.4A13.658,13.658,0,0,0,1479.65,3422.58Z" transform="translate(-1455 -3411)"/>
</svg>
