<?xml version="1.0" encoding="utf-8"?>
<!-- Generator: Adobe Illustrator 22.0.1, SVG Export Plug-In . SVG Version: 6.00 Build 0)  -->
<svg version="1.1" id="Слой_1" xmlns="http://www.w3.org/2000/svg" xmlns:xlink="http://www.w3.org/1999/xlink" x="0px" y="0px"
	 viewBox="0 0 23.6 21.8" style="enable-background:new 0 0 23.6 21.8;" xml:space="preserve">
<style type="text/css">
	.st0{fill:#020202;}
</style>
<path class="st0" d="M21.1,17.9L17.1,14c0,0,0,0-0.1-0.1c0.8-1.2,1.2-2.6,1.2-4.1c0-4.1-3.3-7.4-7.4-7.4c-4.1,0-7.4,3.3-7.4,7.4
	c0,4.1,3.3,7.4,7.4,7.4c1.5,0,2.9-0.4,4.1-1.2c0,0,0,0,0.1,0.1l3.9,3.9c0.6,0.6,1.5,0.6,2.1,0C21.6,19.5,21.6,18.5,21.1,17.9z
	 M10.9,14.7c-2.7,0-4.8-2.2-4.8-4.8c0-2.7,2.2-4.8,4.8-4.8c2.7,0,4.8,2.2,4.8,4.8C15.7,12.6,13.6,14.7,10.9,14.7z"/>
</svg>
