<svg xmlns="http://www.w3.org/2000/svg" width="16" height="15" viewBox="0 0 16 15">
  <metadata><?xpacket begin="﻿" id="W5M0MpCehiHzreSzNTczkc9d"?>
<x:xmpmeta xmlns:x="adobe:ns:meta/" x:xmptk="Adobe XMP Core 5.6-c140 79.160451, 2017/05/06-01:08:21        ">
   <rdf:RDF xmlns:rdf="http://www.w3.org/1999/02/22-rdf-syntax-ns#">
      <rdf:Description rdf:about=""/>
   </rdf:RDF>
</x:xmpmeta>
                                                                                                    
                                                                                                    
                                                                                                    
                                                                                                    
                                                                                                    
                                                                                                    
                                                                                                    
                                                                                                    
                                                                                                    
                                                                                                    
                                                                                                    
                                                                                                    
                                                                                                    
                                                                                                    
                                                                                                    
                                                                                                    
                                                                                                    
                                                                                                    
                                                                                                    
                                                                                                    
                           
<?xpacket end="w"?></metadata>
<defs>
    <style>
      .cls-1 {
        fill: #ffd821;
        fill-rule: evenodd;
      }
    </style>
  </defs>
  <path id="Forma_1" data-name="Forma 1" class="cls-1" d="M405.647,1171.79a1.1,1.1,0,0,0,.29-1.15,1.126,1.126,0,0,0-.926-0.76l-3.871-.55a0.509,0.509,0,0,1-.381-0.27l-1.731-3.44a1.162,1.162,0,0,0-2.056,0l-1.732,3.44a0.509,0.509,0,0,1-.381.27l-3.871.55a1.119,1.119,0,0,0-.636,1.92l2.8,2.67a0.491,0.491,0,0,1,.146.44l-0.661,3.77a1.084,1.084,0,0,0,.25.91,1.165,1.165,0,0,0,1.414.27l3.462-1.78a0.554,0.554,0,0,1,.471,0l3.463,1.78a1.125,1.125,0,0,0,.533.14,1.154,1.154,0,0,0,.88-0.41,1.077,1.077,0,0,0,.25-0.91l-0.661-3.77a0.488,0.488,0,0,1,.146-0.44Z" transform="translate(-390 -1165)"/>
</svg>
