<svg xmlns="http://www.w3.org/2000/svg" width="21" height="21" viewBox="0 0 21 21">
  <metadata><?xpacket begin="﻿" id="W5M0MpCehiHzreSzNTczkc9d"?>
<x:xmpmeta xmlns:x="adobe:ns:meta/" x:xmptk="Adobe XMP Core 5.6-c140 79.160451, 2017/05/06-01:08:21        ">
   <rdf:RDF xmlns:rdf="http://www.w3.org/1999/02/22-rdf-syntax-ns#">
      <rdf:Description rdf:about=""/>
   </rdf:RDF>
</x:xmpmeta>
                                                                                                    
                                                                                                    
                                                                                                    
                                                                                                    
                                                                                                    
                                                                                                    
                                                                                                    
                                                                                                    
                                                                                                    
                                                                                                    
                                                                                                    
                                                                                                    
                                                                                                    
                                                                                                    
                                                                                                    
                                                                                                    
                                                                                                    
                                                                                                    
                                                                                                    
                                                                                                    
                           
<?xpacket end="w"?></metadata>
<defs>
    <style>
      .cls-1 {
        fill: #fff;
        fill-rule: evenodd;
      }
    </style>
  </defs>
  <path class="cls-1" d="M759.278,1580.83a0.675,0.675,0,0,1,0-.81l0.373-.52a1.739,1.739,0,0,0,.281-1.42,1.757,1.757,0,0,0-.895-1.14l-0.57-.3a0.689,0.689,0,0,1-.369-0.73l0.105-.63a1.734,1.734,0,0,0-.373-1.39,1.807,1.807,0,0,0-1.312-.65l-0.65-.02a0.709,0.709,0,0,1-.653-0.5l-0.18-.61a1.791,1.791,0,0,0-1.721-1.27,1.9,1.9,0,0,0-.706.14l-0.6.25a0.722,0.722,0,0,1-.812-0.17l-0.435-.48a1.818,1.818,0,0,0-2.681.02l-0.421.49a0.745,0.745,0,0,1-.812.19l-0.6-.24a1.782,1.782,0,0,0-2.4,1.15l-0.171.61a0.7,0.7,0,0,1-.646.51l-0.645.04a1.786,1.786,0,0,0-1.3.67,1.706,1.706,0,0,0-.351,1.39l0.118,0.63a0.7,0.7,0,0,1-.355.74l-0.566.31a1.739,1.739,0,0,0-.878,1.15,1.719,1.719,0,0,0,.3,1.41l0.382,0.51a0.692,0.692,0,0,1,0,.82l-0.373.52a1.72,1.72,0,0,0-.281,1.41,1.778,1.778,0,0,0,.895,1.15l0.571,0.3a0.688,0.688,0,0,1,.368.73l-0.109.63a1.734,1.734,0,0,0,.373,1.39,1.807,1.807,0,0,0,1.312.65l0.649,0.02a0.718,0.718,0,0,1,.654.51l0.18,0.61a1.794,1.794,0,0,0,1.721,1.26h0a1.9,1.9,0,0,0,.706-0.14l0.6-.25a0.726,0.726,0,0,1,.812.18l0.434,0.47a1.819,1.819,0,0,0,2.682-.02l0.421-.49a0.745,0.745,0,0,1,.812-0.19l0.6,0.24a1.782,1.782,0,0,0,2.4-1.15l0.171-.61a0.7,0.7,0,0,1,.646-0.51l0.645-.04a1.811,1.811,0,0,0,1.3-.66,1.741,1.741,0,0,0,.351-1.4l-0.118-.63a0.681,0.681,0,0,1,.355-0.73l0.566-.31a1.757,1.757,0,0,0,.878-1.16,1.727,1.727,0,0,0-.3-1.41Zm-0.365,1.7a0.69,0.69,0,0,1-.351.46l-0.566.31a1.744,1.744,0,0,0-.891,1.85l0.119,0.62a0.68,0.68,0,0,1-.141.56,0.736,0.736,0,0,1-.517.27l-0.646.03a1.79,1.79,0,0,0-1.623,1.29l-0.172.61a0.711,0.711,0,0,1-.688.51,0.646,0.646,0,0,1-.273-0.05l-0.6-.24a1.983,1.983,0,0,0-.68-0.13,1.822,1.822,0,0,0-1.352.6l-0.425.48a0.728,0.728,0,0,1-.54.24,0.7,0.7,0,0,1-.531-0.23l-0.435-.48a1.807,1.807,0,0,0-1.334-.58,1.879,1.879,0,0,0-.706.14l-0.6.25a0.7,0.7,0,0,1-.281.06,0.716,0.716,0,0,1-.685-0.51l-0.18-.61a1.78,1.78,0,0,0-1.641-1.26l-0.65-.03a0.728,0.728,0,0,1-.522-0.25,0.688,0.688,0,0,1-.149-0.56l0.11-.63a1.73,1.73,0,0,0-.922-1.83l-0.57-.3a0.685,0.685,0,0,1-.356-0.46,0.665,0.665,0,0,1,.11-0.56l0.373-.52a1.725,1.725,0,0,0-.018-2.05l-0.382-.51a0.658,0.658,0,0,1-.118-0.56,0.693,0.693,0,0,1,.351-0.46l0.566-.31a1.741,1.741,0,0,0,.891-1.85l-0.114-.61a0.67,0.67,0,0,1,.14-0.56,0.7,0.7,0,0,1,.518-0.27l0.645-.04a1.781,1.781,0,0,0,1.624-1.28l0.171-.62a0.713,0.713,0,0,1,.689-0.51,0.641,0.641,0,0,1,.272.05l0.6,0.24a1.983,1.983,0,0,0,.68.13,1.822,1.822,0,0,0,1.352-.6l0.425-.48a0.726,0.726,0,0,1,.54-0.24,0.706,0.706,0,0,1,.531.23l0.435,0.48a1.807,1.807,0,0,0,1.334.58,1.887,1.887,0,0,0,.706-0.14l0.6-.25a0.7,0.7,0,0,1,.281-0.06,0.716,0.716,0,0,1,.685.51l0.18,0.61a1.78,1.78,0,0,0,1.641,1.26l0.649,0.03a0.7,0.7,0,0,1,.523.26,0.657,0.657,0,0,1,.149.55l-0.105.63a1.728,1.728,0,0,0,.921,1.83l0.571,0.3a0.709,0.709,0,0,1,.36.46,0.668,0.668,0,0,1-.11.56l-0.373.52a1.727,1.727,0,0,0,.017,2.05l0.382,0.51A0.732,0.732,0,0,1,758.913,1582.53Zm-7.513-5.54a3.072,3.072,0,0,1-3.8,0,3.051,3.051,0,0,0-2.141.87,2.875,2.875,0,0,0-.887,2.09,2.918,2.918,0,0,0,.891,2.1l3.392,3.32a0.885,0.885,0,0,0,.65.27,0.921,0.921,0,0,0,.649-0.27l3.388-3.31a2.95,2.95,0,0,0,.891-2.1,2.916,2.916,0,0,0-.886-2.1A3.037,3.037,0,0,0,751.4,1576.99Zm1.378,4.33-3.278,3.21-3.283-3.22a1.889,1.889,0,0,1,0-2.71,1.966,1.966,0,0,1,1.378-.56,2,2,0,0,1,1.387.57l0.14,0.14a0.577,0.577,0,0,0,.759,0l0.136-.14a1.987,1.987,0,0,1,2.765,0A1.893,1.893,0,0,1,752.778,1581.32Z" transform="translate(-739 -1570)"/>
</svg>
