<svg xmlns="http://www.w3.org/2000/svg" width="24" height="25" viewBox="0 0 24 25">
  <metadata><?xpacket begin="﻿" id="W5M0MpCehiHzreSzNTczkc9d"?>
<x:xmpmeta xmlns:x="adobe:ns:meta/" x:xmptk="Adobe XMP Core 5.6-c140 79.160451, 2017/05/06-01:08:21        ">
   <rdf:RDF xmlns:rdf="http://www.w3.org/1999/02/22-rdf-syntax-ns#">
      <rdf:Description rdf:about=""/>
   </rdf:RDF>
</x:xmpmeta>
                                                                                                    
                                                                                                    
                                                                                                    
                                                                                                    
                                                                                                    
                                                                                                    
                                                                                                    
                                                                                                    
                                                                                                    
                                                                                                    
                                                                                                    
                                                                                                    
                                                                                                    
                                                                                                    
                                                                                                    
                                                                                                    
                                                                                                    
                                                                                                    
                                                                                                    
                                                                                                    
                           
<?xpacket end="w"?></metadata>
<defs>
    <style>
      .cls-1 {
        fill-rule: evenodd;
      }
    </style>
  </defs>
  <path id="Forma_1" data-name="Forma 1" class="cls-1" d="M479.843,1580.81a0.735,0.735,0,0,1,0-.65l0.932-1.91a2.167,2.167,0,0,0-.936-2.88l-1.877-1a0.745,0.745,0,0,1-.381-0.52l-0.367-2.1a2.177,2.177,0,0,0-2.452-1.78l-2.1.3a0.739,0.739,0,0,1-.617-0.2l-1.526-1.48a2.176,2.176,0,0,0-3.032,0l-1.527,1.48a0.736,0.736,0,0,1-.616.2l-2.1-.3a2.179,2.179,0,0,0-2.453,1.78l-0.367,2.1a0.74,0.74,0,0,1-.38.52l-1.877,1a2.168,2.168,0,0,0-.937,2.88l0.933,1.91a0.735,0.735,0,0,1,0,.65l-0.933,1.91a2.168,2.168,0,0,0,.937,2.88l1.877,1a0.738,0.738,0,0,1,.38.53l0.367,2.09a2.168,2.168,0,0,0,2.141,1.8,1.647,1.647,0,0,0,.312-0.02l2.1-.3a0.739,0.739,0,0,1,.617.2l1.526,1.48a2.163,2.163,0,0,0,3.032,0l1.526-1.48a0.739,0.739,0,0,1,.617-0.2l2.1,0.3a2.169,2.169,0,0,0,2.452-1.78l0.367-2.09a0.742,0.742,0,0,1,.381-0.53l1.877-1a2.167,2.167,0,0,0,.936-2.88Zm-0.681,3.52-1.876,1a2.148,2.148,0,0,0-1.125,1.55l-0.367,2.09a0.733,0.733,0,0,1-.83.6l-2.1-.3a2.191,2.191,0,0,0-1.822.6l-1.526,1.47a0.732,0.732,0,0,1-1.026,0l-1.527-1.47a2.16,2.16,0,0,0-1.51-.62c-0.1,0-.207.01-0.311,0.02l-2.1.3a0.733,0.733,0,0,1-.83-0.6l-0.367-2.09a2.148,2.148,0,0,0-1.125-1.55l-1.877-1a0.742,0.742,0,0,1-.317-0.98l0.933-1.91a2.152,2.152,0,0,0,0-1.91l-0.933-1.91a0.742,0.742,0,0,1,.317-0.98l1.877-.99a2.186,2.186,0,0,0,1.125-1.55l0.367-2.1a0.733,0.733,0,0,1,.83-0.6l2.1,0.3a2.182,2.182,0,0,0,1.821-.59l1.527-1.48a0.732,0.732,0,0,1,1.026,0l1.526,1.48a2.184,2.184,0,0,0,1.821.59l2.1-.3a0.732,0.732,0,0,1,.829.6l0.368,2.1a2.186,2.186,0,0,0,1.125,1.55l1.876,0.99a0.74,0.74,0,0,1,.317.98l-0.933,1.91a2.159,2.159,0,0,0,0,1.91l0.933,1.91A0.74,0.74,0,0,1,479.162,1584.33Zm-4.892-9.12a0.724,0.724,0,0,0-1.02,0l-9.52,9.53a0.721,0.721,0,0,0,1.02,1.02l9.52-9.53A0.721,0.721,0,0,0,474.27,1575.21Zm-8.155-1.22a2.645,2.645,0,1,0,2.644,2.65A2.651,2.651,0,0,0,466.115,1573.99Zm0,3.85a1.205,1.205,0,1,1,1.2-1.2A1.2,1.2,0,0,1,466.115,1577.84Zm5.77,3.85a2.645,2.645,0,1,0,2.645,2.65A2.652,2.652,0,0,0,471.885,1581.69Zm0,3.85a1.205,1.205,0,1,1,1.2-1.2A1.2,1.2,0,0,1,471.885,1585.54Z" transform="translate(-457 -1568)"/>
</svg>
