<svg xmlns="http://www.w3.org/2000/svg" width="24" height="24" viewBox="0 0 24 24">
  <metadata><?xpacket begin="﻿" id="W5M0MpCehiHzreSzNTczkc9d"?>
<x:xmpmeta xmlns:x="adobe:ns:meta/" x:xmptk="Adobe XMP Core 5.6-c140 79.160451, 2017/05/06-01:08:21        ">
   <rdf:RDF xmlns:rdf="http://www.w3.org/1999/02/22-rdf-syntax-ns#">
      <rdf:Description rdf:about=""/>
   </rdf:RDF>
</x:xmpmeta>
                                                                                                    
                                                                                                    
                                                                                                    
                                                                                                    
                                                                                                    
                                                                                                    
                                                                                                    
                                                                                                    
                                                                                                    
                                                                                                    
                                                                                                    
                                                                                                    
                                                                                                    
                                                                                                    
                                                                                                    
                                                                                                    
                                                                                                    
                                                                                                    
                                                                                                    
                                                                                                    
                           
<?xpacket end="w"?></metadata>
<defs>
    <style>
      .cls-1 {
        fill-rule: evenodd;
      }
    </style>
  </defs>
  <path id="Forma_1" data-name="Forma 1" class="cls-1" d="M1363,1585.79a5.79,5.79,0,1,0-5.79-5.79A5.793,5.793,0,0,0,1363,1585.79Zm0-9.91a4.12,4.12,0,1,1-4.12,4.12A4.114,4.114,0,0,1,1363,1575.88Zm0.85-4.36v-2.67a0.85,0.85,0,0,0-1.7,0v2.67A0.85,0.85,0,0,0,1363.85,1571.52Zm-1.7,16.96v2.67a0.85,0.85,0,0,0,1.7,0v-2.67A0.85,0.85,0,0,0,1362.15,1588.48Zm7.45-13.88,1.88-1.88a0.851,0.851,0,0,0,0-1.2,0.833,0.833,0,0,0-1.2,0l-1.88,1.88A0.849,0.849,0,1,0,1369.6,1574.6Zm-15.08,13.88a0.8,0.8,0,0,0,.6.25,0.866,0.866,0,0,0,.6-0.25l1.88-1.88a0.849,0.849,0,0,0-1.2-1.2l-1.88,1.88A0.851,0.851,0,0,0,1354.52,1588.48ZM1375,1580a0.837,0.837,0,0,0-.85-0.85h-2.67a0.85,0.85,0,0,0,0,1.7h2.67A0.856,0.856,0,0,0,1375,1580Zm-23.15.85h2.67a0.85,0.85,0,0,0,0-1.7h-2.67a0.837,0.837,0,0,0-.85.85A0.856,0.856,0,0,0,1351.85,1580.85Zm19.03,7.88a0.832,0.832,0,0,0,.6-0.25,0.851,0.851,0,0,0,0-1.2l-1.88-1.88a0.849,0.849,0,0,0-1.2,1.2l1.88,1.88A0.866,0.866,0,0,0,1370.88,1588.73Zm-13.28-14.13a0.851,0.851,0,0,0,0-1.2l-1.88-1.88a0.833,0.833,0,0,0-1.2,0,0.851,0.851,0,0,0,0,1.2l1.88,1.88A0.845,0.845,0,0,0,1357.6,1574.6Z" transform="translate(-1351 -1568)"/>
</svg>
