<svg xmlns="http://www.w3.org/2000/svg" width="22.97" height="23" viewBox="0 0 22.97 23">
  <defs>
    <style>
      .cls-1 {
        fill-rule: evenodd;
      }
    </style>
  </defs>
  <path class="cls-1" d="M1075.21,1579.02a1.538,1.538,0,0,0,.39-1.58,1.5,1.5,0,0,0-1.23-1.04l-5.03-.75a0.281,0.281,0,0,1-.23-0.16l-2.25-4.63a1.505,1.505,0,0,0-2.72,0l-2.25,4.63a0.3,0.3,0,0,1-.23.16l-5.03.75a1.5,1.5,0,0,0-1.23,1.04,1.538,1.538,0,0,0,.39,1.58l3.64,3.61a0.332,0.332,0,0,1,.09.27l-0.86,5.09a1.523,1.523,0,0,0,.6,1.5,1.5,1.5,0,0,0,1.6.12l4.5-2.4a0.28,0.28,0,0,1,.28,0l4.5,2.4a1.527,1.527,0,0,0,.71.18,1.491,1.491,0,0,0,.89-0.3,1.523,1.523,0,0,0,.6-1.5l-0.86-5.09a0.332,0.332,0,0,1,.09-0.27Zm-4.92,4.09,0.86,5.09a0.316,0.316,0,0,1-.12.3,0.305,0.305,0,0,1-.32.02l-4.5-2.4a1.527,1.527,0,0,0-.71-0.18,1.5,1.5,0,0,0-.71.18l-4.5,2.4a0.305,0.305,0,0,1-.32-0.02,0.316,0.316,0,0,1-.12-0.3l0.86-5.09a1.575,1.575,0,0,0-.43-1.37l-3.65-3.6a0.288,0.288,0,0,1-.07-0.31,0.266,0.266,0,0,1,.24-0.21l5.03-.75a1.5,1.5,0,0,0,1.15-.84l2.25-4.63a0.3,0.3,0,0,1,.54,0h0l2.25,4.63a1.5,1.5,0,0,0,1.14.84l5.04,0.75a0.3,0.3,0,0,1,.16.52l-3.64,3.6A1.575,1.575,0,0,0,1070.29,1583.11Zm2.3-12.25a0.608,0.608,0,0,0-.85.13l-0.64.9a0.618,0.618,0,0,0,.13.86,0.6,0.6,0,0,0,.36.12,0.626,0.626,0,0,0,.49-0.25l0.64-.9A0.618,0.618,0,0,0,1072.59,1570.86Zm-12.69,1.03-0.64-.9a0.6,0.6,0,0,0-.85-0.14,0.631,0.631,0,0,0-.14.86l0.65,0.9a0.6,0.6,0,0,0,.49.26A0.615,0.615,0,0,0,1059.9,1571.89Zm-3.67,11.93a0.614,0.614,0,0,0-.77-0.4l-1.04.35a0.616,0.616,0,0,0,.19,1.2,0.566,0.566,0,0,0,.18-0.03l1.05-.35A0.621,0.621,0,0,0,1056.23,1583.82Zm9.27,6.83a0.615,0.615,0,0,0-.61.62v1.11a0.615,0.615,0,0,0,.61.62,0.621,0.621,0,0,0,.61-0.62v-1.11A0.621,0.621,0,0,0,1065.5,1590.65Zm11.08-6.88-1.04-.35a0.615,0.615,0,0,0-.38,1.17l1.04,0.35a0.68,0.68,0,0,0,.19.03A0.616,0.616,0,0,0,1076.58,1583.77Z" transform="translate(-1054.03 -1570)"/>
</svg>
